<svg width="500" height="501" viewBox="0 0 500 501" fill="none" xmlns="http://www.w3.org/2000/svg">
<g clip-path="url(#clip0_2012_740)">
<path d="M500 0.737305H0V500.737H500V0.737305Z" fill="#F1F1F2"/>
<mask id="mask0_2012_740" style="mask-type:luminance" maskUnits="userSpaceOnUse" x="50" y="138" width="400" height="225">
<path d="M50 363H450V138H50V363Z" fill="white"/>
</mask>
<g mask="url(#mask0_2012_740)">
<path d="M100.041 208.018V193.341H88.5547V208.018H90.1344V194.735H98.4614V208.018H100.041ZM111.654 208.381C112.969 208.372 114.117 208.052 115.097 207.42C116.077 206.787 116.84 205.895 117.384 204.743C117.929 203.592 118.206 202.232 118.214 200.664C118.206 199.087 117.929 197.726 117.384 196.579C116.84 195.433 116.077 194.548 115.097 193.924C114.117 193.301 112.969 192.985 111.654 192.978C110.921 192.983 110.232 193.104 109.588 193.34C108.943 193.577 108.362 193.896 107.846 194.298C107.329 194.7 106.897 195.151 106.549 195.653V193.341H104.969V213.613H106.549V205.645C107.151 206.49 107.892 207.155 108.771 207.64C109.65 208.124 110.611 208.371 111.654 208.381ZM111.381 206.951C110.706 206.946 110.039 206.816 109.412 206.569C108.785 206.321 108.223 205.995 107.727 205.592C107.231 205.189 106.839 204.751 106.549 204.278V197.02C106.839 196.548 107.231 196.115 107.727 195.721C108.223 195.328 108.785 195.013 109.412 194.775C110.041 194.536 110.708 194.412 111.381 194.408C112.477 194.419 113.407 194.696 114.171 195.24C114.934 195.783 115.515 196.524 115.914 197.463C116.312 198.401 116.513 199.468 116.516 200.664C116.513 201.86 116.312 202.93 115.914 203.873C115.515 204.816 114.934 205.562 114.171 206.111C113.407 206.659 112.477 206.939 111.381 206.951ZM128.7 208.381C129.912 208.378 130.991 208.173 131.938 207.767C132.884 207.361 133.72 206.777 134.445 206.013L133.626 204.979C132.996 205.649 132.271 206.156 131.451 206.5C130.632 206.843 129.755 207.016 128.821 207.017C127.953 207.011 127.174 206.857 126.482 206.553C125.791 206.25 125.199 205.83 124.705 205.294C124.212 204.758 123.826 204.139 123.549 203.436C123.273 202.733 123.115 201.98 123.075 201.176H135.356V200.751C135.355 199.688 135.204 198.689 134.902 197.755C134.6 196.821 134.155 195.996 133.567 195.281C132.979 194.565 132.255 194.005 131.394 193.598C130.534 193.192 129.545 192.985 128.426 192.977C127.403 192.984 126.461 193.185 125.601 193.58C124.749 193.969 123.986 194.528 123.359 195.224C122.723 195.925 122.231 196.739 121.88 197.665C121.53 198.591 121.352 199.589 121.347 200.66C121.358 202.182 121.676 203.521 122.301 204.676C122.925 205.831 123.787 206.735 124.888 207.387C125.989 208.038 127.259 208.37 128.7 208.381ZM133.747 199.93H123.075C123.105 199.284 123.237 198.633 123.47 197.981C123.704 197.328 124.045 196.719 124.481 196.179C124.922 195.631 125.468 195.19 126.119 194.856C126.771 194.522 127.529 194.351 128.396 194.341C129.314 194.351 130.109 194.526 130.78 194.865C131.45 195.204 132.004 195.65 132.44 196.202C132.869 196.741 133.199 197.352 133.415 198.006C133.63 198.657 133.74 199.298 133.747 199.93ZM153.292 208.018V193.341H151.105L146.362 205.253L141.558 193.341H139.431V208.018H141.011V195.499L146.088 208.018H146.666L151.682 195.499V208.018H153.292ZM159.739 208.018L168.127 195.62V208.018H169.707V193.341H168.157L159.8 205.556V193.341H158.221V208.018H159.739ZM176.062 208.018L179.984 202.029H184.453V208.018H186.062V193.341H178.768C177.822 193.349 177.017 193.544 176.353 193.926C175.689 194.308 175.181 194.825 174.831 195.477C174.481 196.13 174.304 196.865 174.301 197.685C174.306 198.511 174.472 199.238 174.799 199.865C175.127 200.492 175.587 200.99 176.182 201.361C176.776 201.731 177.476 201.944 178.281 201.999L174.18 208.018H176.062ZM178.889 200.635C178.241 200.631 177.697 200.505 177.26 200.256C176.823 200.007 176.494 199.662 176.272 199.22C176.051 198.779 175.941 198.268 175.941 197.685C175.942 197.103 176.057 196.591 176.286 196.15C176.515 195.709 176.849 195.363 177.287 195.114C177.726 194.866 178.259 194.739 178.889 194.735H184.453V200.635H178.889ZM112.337 252.063L100.241 237.757L112.391 225.988H108.665L93.2747 240.889V225.988H90.4683V252.063H93.2747V244.235L98.1347 239.646L108.557 252.063H112.337ZM129.608 252.708C131.944 252.693 133.983 252.123 135.724 251.001C137.466 249.877 138.821 248.293 139.789 246.246C140.757 244.2 141.248 241.784 141.263 238.999C141.248 236.197 140.757 233.779 139.789 231.742C138.821 229.705 137.466 228.133 135.724 227.025C133.983 225.917 131.944 225.357 129.608 225.343C128.306 225.353 127.082 225.568 125.937 225.988C124.791 226.408 123.76 226.975 122.842 227.689C121.925 228.402 121.157 229.205 120.539 230.096V225.988H117.732V262.004H120.539V247.847C121.608 249.349 122.924 250.531 124.487 251.392C126.048 252.253 127.756 252.691 129.608 252.708ZM129.122 250.168C127.925 250.158 126.739 249.928 125.625 249.489C124.511 249.048 123.512 248.47 122.632 247.754C121.751 247.038 121.053 246.26 120.539 245.42V232.524C121.053 231.685 121.751 230.917 122.632 230.218C123.512 229.519 124.511 228.958 125.625 228.535C126.74 228.112 127.906 227.895 129.122 227.884C131.07 227.904 132.722 228.397 134.079 229.363C135.435 230.328 136.467 231.644 137.176 233.311C137.884 234.978 138.241 236.874 138.246 238.999C138.241 241.124 137.884 243.025 137.176 244.7C136.467 246.376 135.435 247.701 134.079 248.675C132.722 249.649 131.07 250.146 129.122 250.168ZM148.344 225.988V252.062H161.305C163.035 252.044 164.489 251.685 165.666 250.983C166.843 250.283 167.732 249.351 168.334 248.189C168.934 247.027 169.236 245.744 169.238 244.34C169.236 242.936 168.934 241.654 168.334 240.493C167.732 239.332 166.843 238.402 165.666 237.703C164.489 237.004 163.035 236.645 161.305 236.627H151.151V225.988H148.344ZM161.089 239.104C162.241 239.113 163.201 239.341 163.969 239.79C164.737 240.238 165.314 240.855 165.697 241.639C166.081 242.424 166.274 243.324 166.274 244.34C166.272 245.356 166.076 246.251 165.686 247.026C165.295 247.803 164.715 248.411 163.946 248.851C163.177 249.29 162.224 249.513 161.089 249.522H151.151V239.104H161.089ZM176.529 252.062V225.988H173.67V252.062H176.529ZM209.91 252.063V225.988H206.024L197.598 247.151L189.063 225.988H185.284V252.063H188.091V229.822L197.112 252.063H198.138L207.05 229.822V252.063H209.91ZM120.327 301.382V275.307H111.258L104.937 290.855L98.5075 275.307H89.4925V301.382H96.3466V284.428L103.371 301.382H106.504L113.474 284.428V301.382H120.327ZM139.213 302.028C141.376 302.015 143.311 301.65 145.016 300.933C146.722 300.216 148.17 299.227 149.362 297.965C150.555 296.704 151.464 295.249 152.089 293.601C152.715 291.953 153.03 290.193 153.034 288.318C153.03 286.456 152.715 284.705 152.089 283.065C151.464 281.425 150.555 279.975 149.362 278.718C148.17 277.459 146.722 276.472 145.016 275.756C143.311 275.04 141.376 274.675 139.213 274.661C137.062 274.675 135.138 275.04 133.441 275.756C131.743 276.472 130.299 277.459 129.11 278.718C127.921 279.975 127.014 281.425 126.389 283.065C125.765 284.705 125.45 286.456 125.445 288.318C125.45 290.193 125.765 291.953 126.389 293.601C127.014 295.249 127.921 296.704 129.11 297.965C130.299 299.227 131.743 300.216 133.441 300.933C135.138 301.65 137.062 302.015 139.213 302.028ZM139.213 295.926C137.789 295.908 136.583 295.554 135.596 294.865C134.61 294.176 133.86 293.258 133.347 292.113C132.834 290.968 132.577 289.703 132.574 288.318C132.577 286.95 132.834 285.698 133.347 284.561C133.86 283.423 134.61 282.51 135.596 281.823C136.583 281.134 137.789 280.782 139.213 280.763C140.638 280.782 141.848 281.134 142.844 281.823C143.839 282.51 144.597 283.423 145.118 284.561C145.64 285.698 145.903 286.95 145.906 288.318C145.903 289.703 145.64 290.968 145.118 292.113C144.597 293.258 143.839 294.176 142.844 294.865C141.848 295.554 140.638 295.908 139.213 295.926ZM155.704 302.028C157.911 302.031 159.762 301.551 161.258 300.589C162.754 299.626 163.942 298.163 164.821 296.198C165.699 294.235 166.315 291.752 166.666 288.75L167.53 281.303H175.792V301.382H182.646V275.308H161.536L159.862 287.942C159.595 290.034 159.272 291.702 158.893 292.944C158.513 294.187 158.062 295.08 157.538 295.62C157.015 296.162 156.404 296.426 155.704 296.414V302.028ZM201.545 302.028C203.709 302.015 205.644 301.65 207.349 300.933C209.054 300.216 210.502 299.227 211.695 297.965C212.887 296.704 213.796 295.249 214.422 293.601C215.047 291.953 215.362 290.193 215.367 288.318C215.362 286.456 215.047 284.705 214.422 283.065C213.796 281.425 212.887 279.975 211.695 278.718C210.502 277.459 209.054 276.472 207.349 275.756C205.644 275.04 203.709 274.675 201.545 274.661C199.394 274.675 197.47 275.04 195.773 275.756C194.075 276.472 192.631 277.459 191.442 278.718C190.253 279.975 189.346 281.425 188.722 283.065C188.097 284.705 187.782 286.456 187.777 288.318C187.782 290.193 188.097 291.953 188.722 293.601C189.346 295.249 190.253 296.704 191.442 297.965C192.631 299.227 194.075 300.216 195.773 300.933C197.47 301.65 199.394 302.015 201.545 302.028ZM201.545 295.926C200.121 295.908 198.916 295.554 197.929 294.865C196.942 294.176 196.192 293.258 195.679 292.113C195.166 290.968 194.909 289.703 194.906 288.318C194.909 286.95 195.166 285.698 195.679 284.561C196.192 283.423 196.942 282.51 197.929 281.823C198.916 281.134 200.121 280.782 201.545 280.763C202.97 280.782 204.181 281.134 205.176 281.823C206.171 282.51 206.929 283.423 207.451 284.561C207.972 285.698 208.235 286.95 208.239 288.318C208.235 289.703 207.972 290.968 207.451 292.113C206.929 293.258 206.171 294.176 205.176 294.865C204.181 295.554 202.97 295.908 201.545 295.926ZM218.033 308.023H224.94V301.381H240.985V308.023H247.839V295.387H244.978V275.308H223.86L222.187 287.94C221.986 289.506 221.755 290.778 221.492 291.756C221.231 292.733 220.932 293.49 220.596 294.024C220.26 294.558 219.879 294.944 219.456 295.179C219.032 295.415 218.558 295.575 218.033 295.657V308.023ZM229.857 281.303H238.124V295.387H226.02C226.832 294.632 227.491 293.672 227.999 292.506C228.507 291.341 228.856 289.962 229.046 288.371L229.857 281.303ZM273.428 268.391C273.42 267.717 273.251 267.108 272.921 266.565C272.596 266.028 272.141 265.581 271.597 265.267C271.045 264.945 270.432 264.781 269.758 264.774C269.084 264.781 268.47 264.945 267.918 265.267C267.374 265.581 266.919 266.028 266.594 266.565C266.264 267.108 266.095 267.717 266.087 268.391C266.095 269.082 266.264 269.703 266.594 270.255C266.917 270.798 267.372 271.249 267.918 271.566C268.47 271.89 269.084 272.055 269.758 272.062C270.432 272.055 271.045 271.89 271.597 271.566C272.143 271.249 272.599 270.798 272.921 270.255C273.251 269.703 273.42 269.082 273.428 268.391ZM261.985 268.391C261.977 267.717 261.813 267.108 261.491 266.565C261.177 266.029 260.73 265.582 260.193 265.267C259.649 264.945 259.041 264.781 258.368 264.774C257.677 264.781 257.055 264.945 256.504 265.267C255.962 265.58 255.51 266.027 255.192 266.565C254.869 267.108 254.704 267.717 254.696 268.391C254.704 269.082 254.869 269.703 255.192 270.255C255.508 270.798 255.96 271.251 256.504 271.566C257.055 271.89 257.677 272.055 258.368 272.062C259.041 272.055 259.649 271.89 260.193 271.566C260.732 271.248 261.179 270.797 261.491 270.255C261.813 269.703 261.977 269.082 261.985 268.391ZM264.408 302.027C265.755 302.028 267.098 301.891 268.416 301.617C269.729 301.344 270.962 300.939 272.113 300.403C273.264 299.866 274.277 299.202 275.15 298.41L272.126 293.985C271.555 294.526 270.869 294.99 270.069 295.375C269.274 295.759 268.439 296.056 267.58 296.262C266.72 296.468 265.915 296.571 265.163 296.573C263.686 296.559 262.414 296.281 261.348 295.738C260.282 295.195 259.438 294.469 258.815 293.561C258.194 292.652 257.809 291.642 257.662 290.532H277.04V289.022C277.023 286.16 276.469 283.656 275.381 281.509C274.292 279.363 272.771 277.689 270.817 276.49C268.865 275.291 266.584 274.682 263.976 274.662C261.984 274.674 260.165 275.031 258.52 275.734C256.874 276.436 255.452 277.411 254.252 278.658C253.053 279.905 252.126 281.352 251.472 282.998C250.818 284.645 250.487 286.419 250.478 288.32C250.489 290.417 250.843 292.307 251.54 293.99C252.236 295.673 253.213 297.113 254.468 298.309C255.725 299.506 257.196 300.423 258.884 301.062C260.573 301.699 262.414 302.021 264.408 302.027ZM270.398 285.893H257.554C257.633 285.236 257.813 284.57 258.095 283.897C258.376 283.224 258.774 282.603 259.288 282.033C259.802 281.463 260.445 281.003 261.22 280.655C261.994 280.305 262.912 280.126 263.976 280.116C265.106 280.127 266.071 280.311 266.87 280.67C267.667 281.028 268.32 281.496 268.826 282.074C269.332 282.651 269.712 283.275 269.964 283.943C270.217 284.612 270.362 285.262 270.398 285.893ZM287.212 301.382L294.179 291.341L295.421 292.691V301.382H302.326V292.691L303.568 291.341L310.534 301.382H319.066L308.482 287.13L318.742 275.307H310.318L302.326 284.754V275.307H295.421V284.754L287.429 275.307H279.005L289.264 287.13L278.681 301.382H287.212ZM329.379 301.382V290.967H340.191V301.382H347.045V275.307H340.191V284.972H329.379V275.307H322.525V301.382H329.379ZM353.85 275.307V301.382H369.621C371.568 301.363 373.215 300.965 374.562 300.189C375.909 299.414 376.932 298.381 377.631 297.09C378.33 295.798 378.681 294.368 378.686 292.801C378.686 291.251 378.351 289.833 377.679 288.55C377.008 287.266 376.001 286.237 374.657 285.463C373.314 284.689 371.635 284.292 369.621 284.272H360.704V275.307H353.85ZM368.594 289.992C369.573 290.007 370.33 290.273 370.863 290.789C371.397 291.304 371.667 291.975 371.674 292.801C371.667 293.627 371.397 294.297 370.863 294.813C370.33 295.328 369.573 295.594 368.594 295.61H360.704V289.992H368.594ZM388.995 301.382V275.307H382.089V301.382H388.995ZM402.331 301.382L413.413 285.024V301.382H420.266V275.307H413.359L402.601 291.071V275.307H395.747V301.382H402.331ZM417.457 267.945L414.434 265.367C413.672 266.445 412.75 267.279 411.666 267.87C410.581 268.461 409.361 268.76 408.007 268.768C406.6 268.756 405.351 268.45 404.261 267.849C403.171 267.248 402.26 266.421 401.528 265.367L398.504 267.945C399.628 269.425 401.009 270.585 402.648 271.425C404.285 272.265 406.072 272.693 408.007 272.709C409.967 272.693 411.757 272.265 413.381 271.425C415.002 270.585 416.361 269.425 417.457 267.945Z" fill="black"/>
</g>
</g>
<defs>
<clipPath id="clip0_2012_740">
<rect width="500" height="501" fill="white"/>
</clipPath>
</defs>
</svg>
