<svg width="2000" height="2000" viewBox="0 0 2000 2000" fill="none" xmlns="http://www.w3.org/2000/svg">
<rect width="2000" height="2000" fill="#D9F06A"/>
<g clip-path="url(#clip0_2013_756)">
<mask id="mask0_2013_756" style="mask-type:luminance" maskUnits="userSpaceOnUse" x="200" y="517" width="1600" height="900">
<path d="M200 1417H1800V517H200V1417Z" fill="white"/>
</mask>
<g mask="url(#mask0_2013_756)">
<path d="M400.164 797.071V738.363H354.219V797.071H360.538V743.939H393.846V797.071H400.164ZM446.617 798.523C451.877 798.489 456.467 797.207 460.388 794.679C464.309 792.149 467.36 788.581 469.538 783.973C471.718 779.367 472.824 773.928 472.858 767.655C472.824 761.349 471.718 755.903 469.538 751.317C467.36 746.732 464.309 743.191 460.388 740.697C456.467 738.203 451.877 736.941 446.617 736.911C443.686 736.933 440.93 737.415 438.351 738.361C435.771 739.308 433.449 740.583 431.382 742.191C429.317 743.798 427.588 745.604 426.197 747.612V738.363H419.878V819.452H426.197V787.578C428.604 790.96 431.567 793.62 435.086 795.559C438.601 797.497 442.446 798.485 446.617 798.523ZM445.522 792.803C442.826 792.782 440.157 792.264 437.649 791.274C435.139 790.282 432.892 788.98 430.909 787.369C428.926 785.757 427.354 784.005 426.197 782.113V753.078C427.354 751.19 428.926 749.459 430.909 747.885C432.892 746.311 435.139 745.05 437.649 744.098C440.165 743.144 442.831 742.647 445.522 742.63C449.908 742.675 453.628 743.785 456.683 745.96C459.736 748.133 462.059 751.097 463.656 754.851C465.249 758.603 466.053 762.872 466.064 767.655C466.053 772.441 465.249 776.72 463.656 780.492C462.059 784.265 459.736 787.249 456.683 789.442C453.628 791.635 449.908 792.755 445.522 792.803ZM514.799 798.525C519.649 798.512 523.964 797.693 527.751 796.069C531.534 794.445 534.879 792.107 537.781 789.052L534.502 784.915C531.982 787.597 529.083 789.624 525.806 790.999C522.527 792.373 519.02 793.063 515.286 793.068C511.813 793.045 508.694 792.428 505.93 791.213C503.166 790 500.797 788.321 498.821 786.177C496.848 784.033 495.306 781.557 494.198 778.745C493.092 775.933 492.459 772.919 492.3 769.704H541.426V768.002C541.42 763.75 540.814 759.757 539.608 756.02C538.401 752.282 536.621 748.983 534.269 746.122C531.917 743.26 529.019 741.018 525.578 739.392C522.136 737.767 518.18 736.938 513.704 736.908C509.611 736.934 505.844 737.739 502.404 739.318C498.996 740.874 495.944 743.112 493.434 745.894C490.893 748.699 488.922 751.955 487.521 755.66C486.119 759.364 485.409 763.357 485.388 767.638C485.433 773.727 486.706 779.082 489.203 783.703C491.7 788.324 495.15 791.938 499.552 794.547C503.954 797.152 509.038 798.48 514.799 798.525ZM534.988 764.721H492.3C492.42 762.134 492.947 759.533 493.88 756.923C494.815 754.311 496.182 751.875 497.924 749.715C499.688 747.524 501.871 745.76 504.477 744.423C507.082 743.088 510.118 742.402 513.583 742.365C517.258 742.405 520.436 743.103 523.119 744.458C525.8 745.815 528.014 747.599 529.759 749.807C531.474 751.964 532.795 754.408 533.661 757.024C534.519 759.628 534.961 762.193 534.988 764.721ZM613.169 797.071V738.363H604.42L585.448 786.011L566.231 738.363H557.724V797.071H564.043V746.995L584.353 797.071H586.664L606.73 746.995V797.071H613.169ZM638.958 797.071L672.509 747.479V797.071H678.828V738.363H672.63L639.201 787.225V738.363H632.882V797.071H638.958ZM704.249 797.071L719.936 773.117H737.811V797.071H744.249V738.363H715.071C711.29 738.397 708.07 739.177 705.412 740.705C702.754 742.232 700.724 744.3 699.324 746.909C697.923 749.519 697.217 752.461 697.206 755.741C697.223 759.043 697.888 761.95 699.198 764.459C700.507 766.967 702.35 768.961 704.728 770.442C707.106 771.923 709.906 772.774 713.126 772.997L696.719 797.071H704.249ZM715.557 767.541C712.962 767.522 710.789 767.018 709.041 766.023C707.291 765.029 705.974 763.647 705.089 761.881C704.204 760.117 703.762 758.07 703.762 755.741C703.768 753.412 704.228 751.365 705.143 749.599C706.06 747.834 707.396 746.453 709.149 745.457C710.902 744.462 713.038 743.955 715.557 743.939H737.811V767.541H715.557ZM449.347 973.253L400.963 916.029L449.562 868.953H434.659L373.099 928.554V868.953H361.873V973.253H373.099V941.94L392.539 923.585L434.227 973.253H449.347ZM518.433 975.833C527.778 975.771 535.932 973.493 542.898 969.002C549.864 964.509 555.286 958.17 559.156 949.983C563.028 941.799 564.993 932.135 565.053 920.994C564.993 909.789 563.028 900.114 559.156 891.967C555.286 883.821 549.864 877.53 542.898 873.099C535.932 868.669 527.778 866.428 518.433 866.373C513.226 866.412 508.329 867.27 503.749 868.95C499.164 870.63 495.04 872.899 491.368 875.754C487.699 878.608 484.627 881.818 482.154 885.384V868.953H470.929V1013.02H482.154V956.388C486.432 962.397 491.694 967.122 497.947 970.566C504.192 974.01 511.023 975.764 518.433 975.833ZM516.489 965.67C511.699 965.633 506.956 964.712 502.5 962.954C498.042 961.191 494.05 958.878 490.528 956.016C487.002 953.151 484.212 950.04 482.154 946.68V895.096C484.212 891.741 487.002 888.667 490.528 885.87C494.05 883.074 498.042 880.833 502.5 879.141C506.961 877.449 511.623 876.579 516.489 876.534C524.28 876.615 530.889 878.587 536.317 882.45C541.74 886.311 545.868 891.577 548.703 898.245C551.536 904.911 552.963 912.495 552.984 920.994C552.963 929.495 551.536 937.098 548.703 943.8C545.868 950.502 541.74 955.802 536.317 959.7C530.889 963.597 524.28 965.586 516.489 965.67ZM593.377 868.953V973.248H645.219C652.14 973.175 657.954 971.739 662.664 968.933C667.371 966.132 670.929 962.405 673.334 957.755C675.738 953.109 676.944 947.975 676.953 942.36C676.944 936.744 675.738 931.614 673.334 926.973C670.929 922.329 667.371 918.609 662.664 915.813C657.954 913.014 652.14 911.58 645.219 911.508H604.602V868.953H593.377ZM644.356 921.417C648.963 921.45 652.803 922.365 655.878 924.159C658.95 925.953 661.254 928.419 662.79 931.557C664.326 934.694 665.094 938.294 665.094 942.36C665.088 946.422 664.304 950.003 662.742 953.105C661.179 956.211 658.86 958.643 655.782 960.402C652.707 962.16 648.897 963.053 644.356 963.087H604.602V921.417H644.356ZM706.116 973.248V868.953H694.68V973.248H706.116ZM839.639 973.253V868.953H824.096L790.391 953.603L756.251 868.953H741.138V973.253H752.363V884.289L788.448 973.253H792.551L828.2 884.289V973.253H839.639ZM481.308 1170.53V1066.23H445.032L419.749 1128.42L394.03 1066.23H357.97V1170.53H385.387V1102.71L413.482 1170.53H426.016L453.894 1102.71V1170.53H481.308ZM556.851 1173.11C565.506 1173.06 573.246 1171.6 580.066 1168.73C586.887 1165.86 592.68 1161.91 597.45 1156.86C602.22 1151.82 605.856 1146 608.358 1139.4C610.86 1132.81 612.12 1125.77 612.138 1118.27C612.12 1110.82 610.86 1103.82 608.358 1097.26C605.856 1090.7 602.22 1084.9 597.45 1079.87C592.68 1074.84 586.887 1070.89 580.066 1068.02C573.246 1065.16 565.506 1063.7 556.851 1063.65C548.247 1063.7 540.552 1065.16 533.763 1068.02C526.971 1070.89 521.197 1074.84 516.441 1079.87C511.683 1084.9 508.057 1090.7 505.558 1097.26C503.059 1103.82 501.799 1110.82 501.78 1118.27C501.799 1125.77 503.059 1132.81 505.558 1139.4C508.057 1146 511.683 1151.82 516.441 1156.86C521.197 1161.91 526.971 1165.86 533.763 1168.73C540.552 1171.6 548.247 1173.06 556.851 1173.11ZM556.851 1148.7C551.154 1148.63 546.333 1147.22 542.386 1144.46C538.44 1141.7 535.44 1138.03 533.388 1133.45C531.337 1128.87 530.308 1123.81 530.296 1118.27C530.308 1112.8 531.337 1107.79 533.388 1103.24C535.44 1098.69 538.44 1095.04 542.386 1092.29C546.333 1089.54 551.154 1088.13 556.851 1088.05C562.551 1088.13 567.393 1089.54 571.374 1092.29C575.356 1095.04 578.388 1098.69 580.473 1103.24C582.561 1107.79 583.611 1112.8 583.626 1118.27C583.611 1123.81 582.561 1128.87 580.473 1133.45C578.388 1138.03 575.356 1141.7 571.374 1144.46C567.393 1147.22 562.551 1148.63 556.851 1148.7ZM622.818 1173.11C631.643 1173.12 639.048 1171.2 645.032 1167.36C651.018 1163.5 655.767 1157.65 659.282 1149.79C662.796 1141.94 665.259 1132.01 666.666 1120L670.121 1090.21H703.169V1170.53H730.583V1066.23H646.146L639.45 1116.77C638.381 1125.14 637.089 1131.81 635.571 1136.78C634.052 1141.75 632.247 1145.32 630.152 1147.48C628.061 1149.65 625.617 1150.7 622.818 1150.65V1173.11ZM806.18 1173.11C814.834 1173.06 822.574 1171.6 829.394 1168.73C836.216 1165.86 842.009 1161.91 846.779 1156.86C851.549 1151.82 855.184 1146 857.687 1139.4C860.189 1132.81 861.449 1125.77 861.467 1118.27C861.449 1110.82 860.189 1103.82 857.687 1097.26C855.184 1090.7 851.549 1084.9 846.779 1079.87C842.009 1074.84 836.216 1070.89 829.394 1068.02C822.574 1065.16 814.834 1063.7 806.18 1063.65C797.576 1063.7 789.881 1065.16 783.092 1068.02C776.3 1070.89 770.526 1074.84 765.77 1079.87C761.012 1084.9 757.386 1090.7 754.887 1097.26C752.388 1103.82 751.128 1110.82 751.109 1118.27C751.128 1125.77 752.388 1132.81 754.887 1139.4C757.386 1146 761.012 1151.82 765.77 1156.86C770.526 1161.91 776.3 1165.86 783.092 1168.73C789.881 1171.6 797.576 1173.06 806.18 1173.11ZM806.18 1148.7C800.483 1148.63 795.662 1147.22 791.714 1144.46C787.769 1141.7 784.769 1138.03 782.717 1133.45C780.666 1128.87 779.637 1123.81 779.624 1118.27C779.637 1112.8 780.666 1107.79 782.717 1103.24C784.769 1098.69 787.769 1095.04 791.714 1092.29C795.662 1089.54 800.483 1088.13 806.18 1088.05C811.88 1088.13 816.722 1089.54 820.703 1092.29C824.684 1095.04 827.717 1098.69 829.802 1103.24C831.89 1107.79 832.94 1112.8 832.954 1118.27C832.94 1123.81 831.89 1128.87 829.802 1133.45C827.717 1138.03 824.684 1141.7 820.703 1144.46C816.722 1147.22 811.88 1148.63 806.18 1148.7ZM872.131 1197.09H899.759V1170.52H963.94V1197.09H991.357V1146.55H979.912V1066.23H895.441L888.749 1116.76C887.944 1123.02 887.02 1128.11 885.97 1132.02C884.923 1135.93 883.727 1138.96 882.382 1141.1C881.039 1143.23 879.518 1144.77 877.822 1145.72C876.128 1146.66 874.231 1147.3 872.131 1147.63V1197.09ZM919.427 1090.21H952.498V1146.55H904.081C907.328 1143.53 909.964 1139.69 911.996 1135.02C914.027 1130.36 915.424 1124.85 916.183 1118.49L919.427 1090.21ZM1093.71 1038.56C1093.68 1035.87 1093.01 1033.43 1091.68 1031.26C1090.39 1029.11 1088.56 1027.32 1086.39 1026.07C1084.18 1024.78 1081.73 1024.12 1079.03 1024.09C1076.33 1024.12 1073.88 1024.78 1071.67 1026.07C1069.5 1027.32 1067.68 1029.11 1066.38 1031.26C1065.06 1033.43 1064.38 1035.87 1064.35 1038.56C1064.38 1041.33 1065.06 1043.81 1066.38 1046.02C1067.67 1048.19 1069.49 1050 1071.67 1051.27C1073.88 1052.56 1076.33 1053.22 1079.03 1053.25C1081.73 1053.22 1084.18 1052.56 1086.39 1051.27C1088.57 1050 1090.39 1048.19 1091.68 1046.02C1093.01 1043.81 1093.68 1041.33 1093.71 1038.56ZM1047.94 1038.56C1047.91 1035.87 1047.25 1033.43 1045.97 1031.26C1044.71 1029.11 1042.92 1027.33 1040.77 1026.07C1038.6 1024.78 1036.16 1024.12 1033.47 1024.09C1030.71 1024.12 1028.22 1024.78 1026.02 1026.07C1023.85 1027.32 1022.04 1029.11 1020.77 1031.26C1019.48 1033.43 1018.82 1035.87 1018.79 1038.56C1018.82 1041.33 1019.48 1043.81 1020.77 1046.02C1022.03 1048.19 1023.84 1050 1026.02 1051.27C1028.22 1052.56 1030.71 1053.22 1033.47 1053.25C1036.16 1053.22 1038.6 1052.56 1040.77 1051.27C1042.93 1049.99 1044.72 1048.19 1045.97 1046.02C1047.25 1043.81 1047.91 1041.33 1047.94 1038.56ZM1057.63 1173.11C1063.02 1173.11 1068.39 1172.56 1073.66 1171.47C1078.92 1170.38 1083.85 1168.76 1088.45 1166.61C1093.06 1164.46 1097.11 1161.81 1100.6 1158.64L1088.51 1140.94C1086.22 1143.1 1083.47 1144.96 1080.28 1146.5C1077.09 1148.03 1073.76 1149.22 1070.32 1150.05C1066.88 1150.87 1063.66 1151.28 1060.65 1151.29C1054.74 1151.24 1049.66 1150.12 1045.39 1147.95C1041.13 1145.78 1037.75 1142.88 1035.26 1139.24C1032.77 1135.61 1031.24 1131.57 1030.65 1127.13H1108.16V1121.09C1108.09 1109.64 1105.88 1099.62 1101.52 1091.04C1097.17 1082.45 1091.08 1075.76 1083.27 1070.96C1075.46 1066.16 1066.34 1063.73 1055.9 1063.65C1047.94 1063.7 1040.66 1065.12 1034.08 1067.94C1027.5 1070.74 1021.81 1074.64 1017.01 1079.63C1012.21 1084.62 1008.5 1090.41 1005.89 1096.99C1003.27 1103.58 1001.95 1110.68 1001.91 1118.28C1001.96 1126.67 1003.37 1134.23 1006.16 1140.96C1008.95 1147.69 1012.85 1153.45 1017.87 1158.24C1022.9 1163.02 1028.78 1166.69 1035.54 1169.25C1042.29 1171.8 1049.66 1173.08 1057.63 1173.11ZM1081.59 1108.57H1030.22C1030.53 1105.94 1031.25 1103.28 1032.38 1100.59C1033.5 1097.9 1035.1 1095.41 1037.15 1093.13C1039.21 1090.85 1041.78 1089.01 1044.88 1087.62C1047.98 1086.22 1051.65 1085.5 1055.9 1085.46C1060.43 1085.51 1064.28 1086.24 1067.48 1087.68C1070.67 1089.11 1073.28 1090.98 1075.31 1093.29C1077.33 1095.6 1078.85 1098.1 1079.86 1100.77C1080.87 1103.45 1081.45 1106.05 1081.59 1108.57ZM1148.85 1170.53L1176.71 1130.36L1181.68 1135.76V1170.53H1209.31V1135.76L1214.27 1130.36L1242.14 1170.53H1276.27L1233.93 1113.52L1274.97 1066.23H1241.27L1209.31 1104.02V1066.23H1181.68V1104.02L1149.71 1066.23H1116.02L1157.06 1113.52L1114.72 1170.53H1148.85ZM1317.52 1170.53V1128.87H1360.77V1170.53H1388.18V1066.23H1360.77V1104.89H1317.52V1066.23H1290.1V1170.53H1317.52ZM1415.4 1066.23V1170.53H1478.48C1486.27 1170.45 1492.86 1168.86 1498.25 1165.76C1503.63 1162.65 1507.73 1158.52 1510.53 1153.36C1513.32 1148.19 1514.73 1142.47 1514.74 1136.2C1514.74 1130 1513.4 1124.33 1510.72 1119.2C1508.03 1114.06 1504 1109.95 1498.63 1106.85C1493.26 1103.76 1486.54 1102.17 1478.48 1102.09H1442.82V1066.23H1415.4ZM1474.38 1124.97C1478.29 1125.03 1481.32 1126.09 1483.45 1128.15C1485.59 1130.22 1486.67 1132.9 1486.7 1136.2C1486.67 1139.51 1485.59 1142.19 1483.45 1144.25C1481.32 1146.31 1478.29 1147.38 1474.38 1147.44H1442.82V1124.97H1474.38ZM1555.98 1170.53V1066.23H1528.36V1170.53H1555.98ZM1609.32 1170.53L1653.65 1105.1V1170.53H1681.07V1066.23H1653.44L1610.4 1129.28V1066.23H1582.99V1170.53H1609.32ZM1669.83 1036.78L1657.73 1026.47C1654.69 1030.78 1651 1034.11 1646.66 1036.48C1642.32 1038.84 1637.45 1040.04 1632.03 1040.07C1626.4 1040.02 1621.4 1038.8 1617.05 1036.4C1612.68 1033.99 1609.04 1030.68 1606.11 1026.47L1594.01 1036.78C1598.51 1042.7 1604.04 1047.34 1610.59 1050.7C1617.14 1054.06 1624.29 1055.77 1632.03 1055.83C1639.87 1055.77 1647.03 1054.06 1653.52 1050.7C1660.01 1047.34 1665.44 1042.7 1669.83 1036.78Z" fill="black"/>
</g>
</g>
<defs>
<clipPath id="clip0_2013_756">
<rect width="1600" height="900" fill="white" transform="translate(200 517)"/>
</clipPath>
</defs>
</svg>
